<svg width="29" height="36" viewBox="0 0 29 36" fill="none" xmlns="http://www.w3.org/2000/svg">
<path d="M19.4102 6.01172C18.2324 7.43555 16.2637 8.49023 14.6992 8.49023C14.5059 8.49023 14.3301 8.45508 14.2246 8.4375C14.207 8.34961 14.1543 8.08594 14.1543 7.80469C14.1543 6.01172 15.0684 4.21875 16.0703 3.09375C17.3184 1.61719 19.4277 0.527344 21.1855 0.457031C21.2207 0.650391 21.2383 0.896484 21.2383 1.14258C21.2383 2.93555 20.4824 4.71094 19.4102 6.01172ZM20.6406 8.85938C21.625 8.85938 25.1934 8.96484 27.5312 12.3223C27.3203 12.4805 23.7871 14.4844 23.7871 18.9492C23.7871 24.0996 28.2871 25.9453 28.4277 25.9805C28.4102 26.1035 27.707 28.4766 26.0547 30.9199C24.5605 33.0469 22.9961 35.209 20.6406 35.209C18.2676 35.209 17.6523 33.8203 14.9453 33.8203C12.2734 33.8203 11.3242 35.2441 9.17969 35.2441C7 35.2441 5.48828 33.2578 3.76562 30.832C1.74414 27.9668 0.126953 23.5195 0.126953 19.3008C0.126953 12.5508 4.52148 8.96484 8.86328 8.96484C11.1484 8.96484 13.0469 10.459 14.5059 10.459C15.877 10.459 18.0215 8.85938 20.6406 8.85938Z" fill="white"/>
</svg>
