<svg width="21" height="21" viewBox="0 0 21 21" fill="none" xmlns="http://www.w3.org/2000/svg">
<g clip-path="url(#clip0_7_2244)">
<g clip-path="url(#clip1_7_2244)">
<path d="M19.674 10.1832C19.674 9.40437 19.6121 8.836 19.4782 8.24658H10.7725V11.762H15.8825C15.7796 12.6357 15.2232 13.9513 13.9869 14.8354L13.9695 14.9531L16.7221 17.1316L16.9128 17.1511C18.6643 15.4986 19.674 13.0672 19.674 10.1832Z" fill="#4285F4"/>
<path d="M10.7726 19.4456C13.2761 19.4456 15.3779 18.6036 16.913 17.1511L13.987 14.8355C13.2041 15.3933 12.1532 15.7828 10.7726 15.7828C8.32061 15.7828 6.23948 14.1303 5.49762 11.8463L5.38888 11.8557L2.52669 14.1187L2.48926 14.225C4.01404 17.3195 7.14606 19.4456 10.7726 19.4456Z" fill="#34A853"/>
<path d="M5.4974 11.8463C5.30165 11.2569 5.18836 10.6254 5.18836 9.97282C5.18836 9.3202 5.30165 8.6887 5.4871 8.09929L5.48191 7.97376L2.58385 5.67444L2.48903 5.72051C1.8606 7.00463 1.5 8.44664 1.5 9.97282C1.5 11.499 1.8606 12.9409 2.48903 14.225L5.4974 11.8463Z" fill="#FBBC05"/>
<path d="M10.7726 4.16269C12.5138 4.16269 13.6882 4.93104 14.3579 5.57314L16.9748 2.96282C15.3676 1.43664 13.2761 0.499878 10.7726 0.499878C7.14606 0.499878 4.01404 2.62599 2.48926 5.72043L5.48732 8.09921C6.23949 5.8152 8.32061 4.16269 10.7726 4.16269Z" fill="#EB4335"/>
</g>
</g>
<defs>
<clipPath id="clip0_7_2244">
<rect width="20" height="20" fill="white" transform="translate(0.5 0.472778)"/>
</clipPath>
<clipPath id="clip1_7_2244">
<rect x="1.5" y="0.472778" width="18.1739" height="19" rx="9.08696" fill="white"/>
</clipPath>
</defs>
</svg>
