<svg width="111" height="24" viewBox="0 0 111 24" fill="none" xmlns="http://www.w3.org/2000/svg">
<path d="M0.143555 0.279236H33.3694L19.8558 23.7635H15.1668L8.9479 8.29513H13.7196L18.1732 19.0557L26.4553 4.02461H2.16676L0.143555 0.279236Z" fill="#81EBAB"/>
<path d="M77.1862 12.5541C77.5021 11.6664 77.9587 10.89 78.5581 10.2306C79.1576 9.57124 79.8681 9.0609 80.6868 8.7015L80.6884 8.70072L80.6901 8.70004C81.5317 8.33937 82.4563 8.16235 83.4582 8.16235C84.5017 8.16235 85.4228 8.36911 86.2053 8.8011C86.867 9.15775 87.4216 9.64812 87.8673 10.2663L91.2299 7.58616C90.5905 6.62011 89.6759 5.86182 88.4682 5.31443C87.1302 4.70797 85.5847 4.39923 83.8222 4.39923C82.037 4.39923 80.4174 4.68142 78.9584 5.23967C77.5147 5.79918 76.2753 6.59068 75.2351 7.61299L75.2337 7.61429L75.2324 7.61556C74.1918 8.62032 73.3832 9.81407 72.8068 11.2011C72.2322 12.5839 71.9424 14.0976 71.9424 15.747C71.9424 17.3774 72.3266 18.8032 73.0846 20.0377C73.843 21.2542 74.9205 22.2116 76.3315 22.9083C77.7579 23.6034 79.4389 23.958 81.3857 23.958C83.0968 23.958 84.6421 23.6943 86.0262 23.1733C87.2845 22.6826 88.415 21.8807 89.4162 20.756L86.7239 18.1103C86.0793 18.7865 85.373 19.296 84.6044 19.6281C83.7493 20.0057 82.8525 20.1948 81.9178 20.1948C80.879 20.1948 79.9554 20.0086 79.1594 19.6208L79.1537 19.618L79.148 19.615C78.3749 19.2081 77.7662 18.643 77.333 17.9209L77.3294 17.915L77.3261 17.9089C76.9138 17.1669 76.7138 16.3209 76.7138 15.3829C76.7138 14.3696 76.8697 13.4254 77.1862 12.5541Z" fill="#81EBAB"/>
<path fill-rule="evenodd" clip-rule="evenodd" d="M32.9307 19.7577H41.9276L42.7133 23.5666H47.3536L42.395 4.79205H36.7626L25.9116 23.5666H30.7366L32.9307 19.7577ZM39.5554 8.25724L41.2553 16.4987H34.808L39.5554 8.25724Z" fill="#81EBAB"/>
<path d="M64.2481 16.2314L66.5311 4.79205H71.1178L67.3629 23.5666H63.3724L56.4609 12.0963L54.1717 23.5666H49.585L53.3398 4.79205H57.3307L64.2481 16.2314Z" fill="#81EBAB"/>
<path d="M96.9217 20.1116L97.796 15.6969H106.523L107.173 12.3818H98.4517L99.2703 8.2471H109.158L109.859 4.79205H95.3583L91.604 23.5666H106.472L107.195 20.1116H96.9217Z" fill="#81EBAB"/>
</svg>
