<svg width="432" height="128" viewBox="0 0 432 128" fill="none" xmlns="http://www.w3.org/2000/svg">
<g filter="url(#filter0_d_10_4055)">
<rect x="24" y="24" width="384" height="80" rx="12" fill="#7265EE"/>
<path d="M67.0664 54.5C68.2734 55.6953 68.5312 57.3477 68.5312 59.5859V68.4922C68.5312 70.7305 68.2734 72.3711 67.0664 73.5781C65.8477 74.7852 64.1836 75.0547 61.957 75.0547H53.0625C50.8242 75.0547 49.1719 74.7852 47.9531 73.5781C46.7461 72.3711 46.4883 70.7305 46.4883 68.4922V59.5625C46.4883 57.3477 46.7461 55.707 47.9531 54.5C49.1602 53.2812 50.8359 53.0117 53.0391 53.0117H61.957C64.1836 53.0117 65.8477 53.2812 67.0664 54.5ZM51.7617 64.0391C51.7617 64.7656 52.2891 65.2812 53.0039 65.2812H56.25V68.5273C56.25 69.2422 56.7656 69.7695 57.4922 69.7695C58.2188 69.7695 58.7461 69.2422 58.7461 68.5273V65.2812H62.0039C62.7188 65.2812 63.2344 64.7656 63.2344 64.0391C63.2344 63.3125 62.7188 62.7852 62.0039 62.7852H58.7461V59.5391C58.7461 58.8125 58.2188 58.2969 57.4922 58.2969C56.7656 58.2969 56.25 58.8125 56.25 59.5391V62.7852H53.0039C52.2773 62.7852 51.7617 63.3125 51.7617 64.0391Z" fill="white"/>
<path d="M89.85 59.306C86.97 59.306 84.9 57.56 84.882 55.058L86.61 54.932C86.664 56.714 88.014 57.902 89.868 57.902C91.632 57.902 92.874 57.02 92.874 55.688C92.874 54.554 92.154 53.978 90.552 53.618L88.914 53.312C86.592 52.862 85.296 51.602 85.296 49.748C85.296 47.534 87.096 46.094 89.652 46.094C92.28 46.094 94.206 47.786 94.278 50.216L92.532 50.324C92.46 48.614 91.29 47.48 89.634 47.48C88.14 47.48 87.06 48.344 87.06 49.622C87.06 50.666 87.816 51.332 89.076 51.62L90.714 51.926C93.342 52.43 94.638 53.6 94.638 55.58C94.638 57.794 92.676 59.306 89.85 59.306ZM100.59 59.306C97.9617 59.306 96.0717 57.29 96.0717 54.5C96.0717 51.728 97.9617 49.694 100.572 49.694C103.668 49.694 105.18 52.484 104.856 54.986H97.7997C97.8537 56.732 99.0057 57.974 100.608 57.974C101.85 57.974 102.894 57.254 103.236 56.174L104.694 56.408C104.298 58.064 102.678 59.306 100.59 59.306ZM97.8177 53.708H103.2C103.2 52.178 102.138 50.99 100.572 50.99C99.0777 50.99 97.9617 52.106 97.8177 53.708ZM111.274 58.91C109.528 59.468 107.476 59 107.476 56.228V51.44H105.748V50.018H107.476V47.768H109.186V50.018H111.508V51.44H109.186V56.102C109.186 57.686 110.248 57.848 111.238 57.488L111.274 58.91ZM116.384 61.124C117.464 61.412 118.634 61.196 119.354 59.648L119.732 58.748L115.88 50.018H117.68L120.668 56.858L123.422 50.018H125.15L121.118 59.648C120.11 62.096 118.472 63.086 116.384 62.564V61.124ZM130.123 59.27C127.459 59.27 125.551 57.29 125.551 54.5C125.551 51.71 127.459 49.748 130.123 49.748C132.787 49.748 134.677 51.71 134.677 54.5C134.677 57.29 132.787 59.27 130.123 59.27ZM127.279 54.5C127.279 56.462 128.431 57.83 130.123 57.83C131.797 57.83 132.949 56.462 132.949 54.5C132.949 52.556 131.797 51.188 130.123 51.188C128.431 51.188 127.279 52.556 127.279 54.5ZM137.914 55.292C137.914 56.93 138.652 57.848 139.966 57.848C141.442 57.848 142.27 56.714 142.27 54.662V50.018H143.98V55.76V59H142.27L142.324 57.254C141.856 58.514 140.848 59.234 139.39 59.234C137.464 59.234 136.222 57.848 136.222 55.616V50.018H137.914V55.292ZM145.923 59V50.018H147.633L147.579 52.7C147.957 50.486 149.505 49.694 151.053 49.982V51.656C149.163 51.404 147.633 52.52 147.633 55.13V59H145.923ZM156.892 48.992C156.892 46.616 158.89 45.932 160.564 46.292V47.66C159.628 47.354 158.602 47.57 158.602 48.992V50.018H163.876V59H162.166V51.44H158.602V59H156.892V51.44H155.218V50.018H156.892V48.992ZM161.806 47.264C161.806 46.58 162.328 46.04 163.03 46.04C163.714 46.04 164.236 46.58 164.236 47.264C164.236 47.966 163.714 48.488 163.03 48.488C162.328 48.488 161.806 47.966 161.806 47.264ZM165.826 59V50.018H167.536L167.482 52.7C167.86 50.486 169.408 49.694 170.956 49.982V51.656C169.066 51.404 167.536 52.52 167.536 55.13V59H165.826ZM175.697 59.306C173.447 59.306 171.881 58.082 171.737 56.156L173.321 56.102C173.429 57.326 174.383 58.1 175.697 58.1C176.759 58.1 177.677 57.614 177.677 56.678C177.677 55.976 177.137 55.58 176.075 55.364L174.545 55.076C172.799 54.788 171.989 53.852 171.989 52.538C171.989 50.792 173.447 49.694 175.445 49.694C177.533 49.694 179.027 50.954 179.117 52.826L177.587 52.916C177.515 51.746 176.633 50.918 175.427 50.918C174.419 50.918 173.609 51.476 173.609 52.376C173.609 53.042 174.059 53.456 174.869 53.6L176.399 53.888C178.289 54.23 179.315 55.094 179.315 56.516C179.315 58.244 177.767 59.306 175.697 59.306ZM185.85 58.91C184.104 59.468 182.052 59 182.052 56.228V51.44H180.324V50.018H182.052V47.768H183.762V50.018H186.084V51.44H183.762V56.102C183.762 57.686 184.824 57.848 185.814 57.488L185.85 58.91Z" fill="#D2D2D2"/>
<path d="M88.2742 83V70.4H93.6382C96.3202 70.4 98.0302 71.786 98.0302 73.892C98.0302 75.656 96.7882 76.898 95.0062 77.078C96.6442 77.186 97.5442 78.122 97.6702 79.76L97.8322 81.74C97.8682 82.334 97.9402 82.676 98.0842 83H95.7082C95.6182 82.712 95.5462 82.334 95.5102 81.92L95.3482 79.94C95.2402 78.752 94.5922 78.158 93.2782 78.158H90.5962V83H88.2742ZM90.5962 76.322H93.5302C94.7722 76.322 95.6542 75.53 95.6542 74.306C95.6542 73.1 94.7722 72.254 93.5302 72.254H90.5962V76.322ZM102.232 83.198C100.522 83.198 99.2976 82.226 99.2976 80.66C99.2976 78.968 100.756 78.014 103.438 77.708L105.112 77.528V77.258C105.112 76.16 104.5 75.476 103.456 75.476C102.502 75.476 101.818 76.07 101.728 77.132L99.5676 77.078C99.6756 75.08 101.296 73.676 103.528 73.676C105.76 73.676 107.326 75.152 107.326 77.312V80.318C107.326 81.29 107.416 82.334 107.542 83H105.364C105.274 82.604 105.22 82.19 105.22 81.47C104.734 82.514 103.582 83.198 102.232 83.198ZM101.53 80.462C101.53 81.254 102.142 81.65 102.934 81.65C104.176 81.65 105.148 80.696 105.148 79.328V78.878L103.6 79.058C102.286 79.22 101.53 79.58 101.53 80.462ZM114.069 82.928C112.089 83.486 109.911 82.928 109.911 79.976V75.8H108.273V73.946H109.911V71.66H112.143V73.946H114.321V75.8H112.143V79.796C112.143 81.236 113.097 81.344 114.051 81.056L114.069 82.928ZM119.79 83.324C117.072 83.324 115.128 81.29 115.128 78.464C115.128 75.656 117.072 73.622 119.754 73.622C122.886 73.622 124.56 76.322 124.164 79.148H117.378C117.45 80.552 118.44 81.578 119.808 81.578C120.888 81.578 121.788 80.966 122.094 80.048L124.002 80.336C123.642 82.01 121.986 83.324 119.79 83.324ZM117.396 77.474H122.004C122.004 76.268 121.086 75.296 119.754 75.296C118.512 75.296 117.558 76.178 117.396 77.474ZM131.394 83.198C129.684 83.198 128.46 82.226 128.46 80.66C128.46 78.968 129.918 78.014 132.6 77.708L134.274 77.528V77.258C134.274 76.16 133.662 75.476 132.618 75.476C131.664 75.476 130.98 76.07 130.89 77.132L128.73 77.078C128.838 75.08 130.458 73.676 132.69 73.676C134.922 73.676 136.488 75.152 136.488 77.312V80.318C136.488 81.29 136.578 82.334 136.704 83H134.526C134.436 82.604 134.382 82.19 134.382 81.47C133.896 82.514 132.744 83.198 131.394 83.198ZM130.692 80.462C130.692 81.254 131.304 81.65 132.096 81.65C133.338 81.65 134.31 80.696 134.31 79.328V78.878L132.762 79.058C131.448 79.22 130.692 79.58 130.692 80.462ZM141.967 82.892C139.987 83.396 138.043 82.946 138.043 80.174V70.4H140.275V79.724C140.275 80.948 140.887 81.29 141.949 81.002L141.967 82.892ZM147.424 83.324C144.706 83.324 142.762 81.29 142.762 78.464C142.762 75.656 144.706 73.622 147.388 73.622C150.52 73.622 152.194 76.322 151.798 79.148H145.012C145.084 80.552 146.074 81.578 147.442 81.578C148.522 81.578 149.422 80.966 149.728 80.048L151.636 80.336C151.276 82.01 149.62 83.324 147.424 83.324ZM145.03 77.474H149.638C149.638 76.268 148.72 75.296 147.388 75.296C146.146 75.296 145.192 76.178 145.03 77.474ZM153.224 83V73.946H155.456L155.402 76.43C155.798 74.324 157.292 73.622 158.822 73.928V76.142C157.076 75.89 155.456 76.682 155.456 79.148V83H153.224ZM165.333 82.928C163.353 83.486 161.175 82.928 161.175 79.976V75.8H159.537V73.946H161.175V71.66H163.407V73.946H165.585V75.8H163.407V79.796C163.407 81.236 164.361 81.344 165.315 81.056L165.333 82.928Z" fill="white"/>
<path d="M246 64C246 54.0589 254.059 46 264 46H300C309.941 46 318 54.0589 318 64C318 73.9411 309.941 82 300 82H264C254.059 82 246 73.9411 246 64Z" fill="#81EBAB"/>
<path d="M258.294 69.5L261.962 59.7H264.258L267.926 69.5H266.05L265.126 66.966H260.996L260.058 69.5H258.294ZM261.514 65.538H264.608L263.068 61.31L261.514 65.538ZM271.988 69.71C269.86 69.71 268.32 68.142 268.32 65.972C268.32 63.83 269.874 62.248 271.988 62.248C273.864 62.248 275.348 63.424 275.446 65.146L273.738 65.286C273.64 64.404 272.912 63.774 271.988 63.774C270.854 63.774 270.056 64.698 270.056 65.972C270.056 67.358 270.952 68.17 271.988 68.17C272.87 68.17 273.64 67.554 273.738 66.574L275.46 66.7C275.376 68.492 273.892 69.71 271.988 69.71ZM280.013 69.71C277.885 69.71 276.345 68.142 276.345 65.972C276.345 63.83 277.899 62.248 280.013 62.248C281.889 62.248 283.373 63.424 283.471 65.146L281.763 65.286C281.665 64.404 280.937 63.774 280.013 63.774C278.879 63.774 278.081 64.698 278.081 65.972C278.081 67.358 278.977 68.17 280.013 68.17C280.895 68.17 281.665 67.554 281.763 66.574L283.485 66.7C283.401 68.492 281.917 69.71 280.013 69.71ZM287.997 69.752C285.883 69.752 284.371 68.17 284.371 65.972C284.371 63.788 285.883 62.206 287.969 62.206C290.405 62.206 291.707 64.306 291.399 66.504H286.121C286.177 67.596 286.947 68.394 288.011 68.394C288.851 68.394 289.551 67.918 289.789 67.204L291.273 67.428C290.993 68.73 289.705 69.752 287.997 69.752ZM286.135 65.202H289.719C289.719 64.264 289.005 63.508 287.969 63.508C287.003 63.508 286.261 64.194 286.135 65.202ZM292.648 72.16V62.458H294.384V63.424C294.916 62.696 295.7 62.29 296.68 62.29C298.57 62.29 299.914 63.816 299.914 65.986C299.914 68.142 298.57 69.668 296.68 69.668C295.7 69.668 294.916 69.262 294.384 68.534V72.16H292.648ZM294.286 65.986C294.286 67.316 295.084 68.24 296.218 68.24C297.338 68.24 298.164 67.288 298.164 65.986C298.164 64.67 297.338 63.718 296.218 63.718C295.084 63.718 294.286 64.642 294.286 65.986ZM305.118 69.444C303.578 69.878 301.884 69.444 301.884 67.148V63.9H300.61V62.458H301.884V60.68H303.62V62.458H305.314V63.9H303.62V67.008C303.62 68.128 304.362 68.212 305.104 67.988L305.118 69.444Z" fill="#0B0B0B"/>
<path d="M326 64C326 54.0589 334.059 46 344 46H374C383.941 46 392 54.0589 392 64C392 73.9411 383.941 82 374 82H344C334.059 82 326 73.9411 326 64Z" fill="#111111"/>
<path d="M326 64C326 54.0589 334.059 46 344 46H374C383.941 46 392 54.0589 392 64C392 73.9411 383.941 82 374 82H344C334.059 82 326 73.9411 326 64Z" stroke="#111111" stroke-opacity="0.25"/>
<path d="M338.882 69V59.2H340.688V69H338.882ZM345.824 71.87C343.78 71.87 342.352 70.75 342.24 69.098L343.948 69.042C344.06 69.896 344.788 70.47 345.824 70.47C346.93 70.47 347.644 69.756 347.644 68.594V67.446C347.252 68.188 346.398 68.706 345.404 68.706C343.528 68.706 342.044 67.236 342.044 65.22C342.044 63.274 343.472 61.748 345.404 61.748C346.426 61.748 347.322 62.252 347.742 63.05V61.958H349.38V68.3C349.38 70.54 348.022 71.87 345.824 71.87ZM343.78 65.22C343.78 66.368 344.662 67.278 345.768 67.278C346.902 67.278 347.756 66.41 347.756 65.22C347.756 64.072 346.93 63.176 345.768 63.176C344.662 63.176 343.78 64.072 343.78 65.22ZM350.814 69V61.958H352.55L352.508 63.456C352.816 62.42 353.6 61.79 354.734 61.79C356.26 61.79 357.282 62.924 357.282 64.66V69H355.546V64.926C355.546 63.834 355.028 63.19 354.104 63.19C353.11 63.19 352.55 63.932 352.55 65.234V69H350.814ZM362.105 69.21C359.963 69.21 358.423 67.656 358.423 65.472C358.423 63.302 359.963 61.748 362.105 61.748C364.233 61.748 365.773 63.302 365.773 65.472C365.773 67.656 364.233 69.21 362.105 69.21ZM360.173 65.472C360.173 66.802 360.957 67.74 362.105 67.74C363.239 67.74 364.023 66.802 364.023 65.472C364.023 64.156 363.239 63.218 362.105 63.218C360.957 63.218 360.173 64.156 360.173 65.472ZM366.96 69V61.958H368.696L368.654 63.89C368.962 62.252 370.124 61.706 371.314 61.944V63.666C369.956 63.47 368.696 64.086 368.696 66.004V69H366.96ZM375.516 69.252C373.402 69.252 371.89 67.67 371.89 65.472C371.89 63.288 373.402 61.706 375.488 61.706C377.924 61.706 379.226 63.806 378.918 66.004H373.64C373.696 67.096 374.466 67.894 375.53 67.894C376.37 67.894 377.07 67.418 377.308 66.704L378.792 66.928C378.512 68.23 377.224 69.252 375.516 69.252ZM373.654 64.702H377.238C377.238 63.764 376.524 63.008 375.488 63.008C374.522 63.008 373.78 63.694 373.654 64.702Z" fill="white"/>
</g>
<defs>
<filter id="filter0_d_10_4055" x="0" y="0" width="432" height="128" filterUnits="userSpaceOnUse" color-interpolation-filters="sRGB">
<feFlood flood-opacity="0" result="BackgroundImageFix"/>
<feColorMatrix in="SourceAlpha" type="matrix" values="0 0 0 0 0 0 0 0 0 0 0 0 0 0 0 0 0 0 127 0" result="hardAlpha"/>
<feOffset/>
<feGaussianBlur stdDeviation="12"/>
<feComposite in2="hardAlpha" operator="out"/>
<feColorMatrix type="matrix" values="0 0 0 0 0 0 0 0 0 0 0 0 0 0 0 0 0 0 0.1 0"/>
<feBlend mode="normal" in2="BackgroundImageFix" result="effect1_dropShadow_10_4055"/>
<feBlend mode="normal" in="SourceGraphic" in2="effect1_dropShadow_10_4055" result="shape"/>
</filter>
</defs>
</svg>
